<?xml version="1.0" encoding="utf-8"?>
<svg data-design="Fingerprint" data-payload="https://clip.orangesys.io/order?p=1033&amp;p1=a1b3" viewBox="0 0 800 800" xmlns="http://www.w3.org/2000/svg">
    <title>App Clip Code</title>
    <circle cx="400.000000" cy="400.000000" id="Background" r="400.000000" style="fill:#ffffff"/>
    <g id="Markers">
        <g name="ring-1" transform="rotate(-78 400 400)">
            <path d="M 572.177279 441.897395 A 177.201600 177.201600 0 0 0 575.685616 423.129450" data-color="0" style="fill:none;stroke:#6644ab;stroke-linecap:round;stroke-miterlimit:10;stroke-width:23.500000px"/>
            <path d="M 545.415446 501.265764 A 177.201600 177.201600 0 0 0 555.466637 485.032534" data-color="1" style="fill:none;stroke:#bbaadd;stroke-linecap:round;stroke-miterlimit:10;stroke-width:23.500000px"/>
            <path d="M 499.014452 546.957631 A 177.201600 177.201600 0 0 0 514.251027 535.451504" data-color="0" style="fill:none;stroke:#6644ab;stroke-linecap:round;stroke-miterlimit:10;stroke-width:23.500000px"/>
            <path d="M 439.241007 572.802055 A 177.201600 177.201600 0 0 0 457.605183 567.576997" data-color="0" style="fill:none;stroke:#6644ab;stroke-linecap:round;stroke-miterlimit:10;stroke-width:23.500000px"/>
            <path d="M 374.167847 575.308605 A 177.201600 177.201600 0 0 0 393.179440 577.070288" data-color="0" style="fill:none;stroke:#6644ab;stroke-linecap:round;stroke-miterlimit:10;stroke-width:23.500000px"/>
            <path d="M 231.555791 455.017774 A 177.201600 177.201600 0 0 0 329.674851 562.649256" data-color="1" style="fill:none;stroke:#bbaadd;stroke-linecap:round;stroke-miterlimit:10;stroke-width:23.500000px"/>
            <path d="M 555.466637 314.967466 A 177.201600 177.201600 0 0 0 223.055740 409.546520" data-color="1" style="fill:none;stroke:#bbaadd;stroke-linecap:round;stroke-miterlimit:10;stroke-width:23.500000px"/>
            <path d="M 575.685616 376.870550 A 177.201600 177.201600 0 0 0 572.177279 358.102605" data-color="0" style="fill:none;stroke:#6644ab;stroke-linecap:round;stroke-miterlimit:10;stroke-width:23.500000px"/>
        </g>
        <g name="ring-2" transform="rotate(-85 400 400)">
            <path d="M 601.925067 497.198844 A 224.101200 224.101200 0 0 0 623.031655 421.868445" data-color="1" style="fill:none;stroke:#bbaadd;stroke-linecap:round;stroke-miterlimit:10;stroke-width:23.500000px"/>
            <path d="M 568.213203 548.073179 A 224.101200 224.101200 0 0 0 579.200081 534.568492" data-color="0" style="fill:none;stroke:#6644ab;stroke-linecap:round;stroke-miterlimit:10;stroke-width:23.500000px"/>
            <path d="M 240.792739 557.716188 A 224.101200 224.101200 0 0 0 536.248711 577.925930" data-color="1" style="fill:none;stroke:#bbaadd;stroke-linecap:round;stroke-miterlimit:10;stroke-width:23.500000px"/>
            <path d="M 204.145258 508.914039 A 224.101200 224.101200 0 0 0 213.190915 523.788989" data-color="0" style="fill:none;stroke:#6644ab;stroke-linecap:round;stroke-miterlimit:10;stroke-width:23.500000px"/>
            <path d="M 182.023427 452.034234 A 224.101200 224.101200 0 0 0 186.720434 468.798069" data-color="1" style="fill:none;stroke:#bbaadd;stroke-linecap:round;stroke-miterlimit:10;stroke-width:23.500000px"/>
            <path d="M 186.720434 331.201931 A 224.101200 224.101200 0 0 0 176.067921 408.704712" data-color="1" style="fill:none;stroke:#bbaadd;stroke-linecap:round;stroke-miterlimit:10;stroke-width:23.500000px"/>
            <path d="M 253.516172 230.400955 A 224.101200 224.101200 0 0 0 204.145258 291.085961" data-color="0" style="fill:none;stroke:#6644ab;stroke-linecap:round;stroke-miterlimit:10;stroke-width:23.500000px"/>
            <path d="M 362.962317 178.980639 A 224.101200 224.101200 0 0 0 289.247895 205.178751" data-color="0" style="fill:none;stroke:#6644ab;stroke-linecap:round;stroke-miterlimit:10;stroke-width:23.500000px"/>
            <path d="M 579.200081 265.431508 A 224.101200 224.101200 0 0 0 406.597246 175.995928" data-color="1" style="fill:none;stroke:#bbaadd;stroke-linecap:round;stroke-miterlimit:10;stroke-width:23.500000px"/>
            <path d="M 623.031655 378.131555 A 224.101200 224.101200 0 0 0 601.925067 302.801156" data-color="1" style="fill:none;stroke:#bbaadd;stroke-linecap:round;stroke-miterlimit:10;stroke-width:23.500000px"/>
        </g>
        <g name="ring-3" transform="rotate(-70 400 400)">
            <path d="M 667.777198 441.675002 A 271.000800 271.000800 0 0 0 669.969560 423.619276" data-color="0" style="fill:none;stroke:#6644ab;stroke-linecap:round;stroke-miterlimit:10;stroke-width:23.500000px"/>
            <path d="M 650.022599 504.547280 A 271.000800 271.000800 0 0 0 656.472273 487.540887" data-color="0" style="fill:none;stroke:#6644ab;stroke-linecap:round;stroke-miterlimit:10;stroke-width:23.500000px"/>
            <path d="M 455.988299 665.154189 A 271.000800 271.000800 0 0 0 628.069749 546.374941" data-color="0" style="fill:none;stroke:#6644ab;stroke-linecap:round;stroke-miterlimit:10;stroke-width:23.500000px"/>
            <path d="M 390.905830 670.848167 A 271.000800 271.000800 0 0 0 409.094170 670.848167" data-color="0" style="fill:none;stroke:#6644ab;stroke-linecap:round;stroke-miterlimit:10;stroke-width:23.500000px"/>
            <path d="M 326.351881 660.801434 A 271.000800 271.000800 0 0 0 344.011701 665.154189" data-color="0" style="fill:none;stroke:#6644ab;stroke-linecap:round;stroke-miterlimit:10;stroke-width:23.500000px"/>
            <path d="M 213.587360 596.702214 A 271.000800 271.000800 0 0 0 282.183068 644.050413" data-color="0" style="fill:none;stroke:#6644ab;stroke-linecap:round;stroke-miterlimit:10;stroke-width:23.500000px"/>
            <path d="M 171.930251 546.374941 A 271.000800 271.000800 0 0 0 182.262405 561.343650" data-color="0" style="fill:none;stroke:#6644ab;stroke-linecap:round;stroke-miterlimit:10;stroke-width:23.500000px"/>
            <path d="M 143.527727 487.540887 A 271.000800 271.000800 0 0 0 149.977401 504.547280" data-color="0" style="fill:none;stroke:#6644ab;stroke-linecap:round;stroke-miterlimit:10;stroke-width:23.500000px"/>
            <path d="M 149.977401 295.452720 A 271.000800 271.000800 0 0 0 132.222802 441.675002" data-color="0" style="fill:none;stroke:#6644ab;stroke-linecap:round;stroke-miterlimit:10;stroke-width:23.500000px"/>
            <path d="M 227.201527 191.236686 A 271.000800 271.000800 0 0 0 171.930251 253.625059" data-color="1" style="fill:none;stroke:#bbaadd;stroke-linecap:round;stroke-miterlimit:10;stroke-width:23.500000px"/>
            <path d="M 344.011701 134.845811 A 271.000800 271.000800 0 0 0 266.078093 164.402130" data-color="0" style="fill:none;stroke:#6644ab;stroke-linecap:round;stroke-miterlimit:10;stroke-width:23.500000px"/>
            <path d="M 409.094170 129.151833 A 271.000800 271.000800 0 0 0 390.905830 129.151833" data-color="0" style="fill:none;stroke:#6644ab;stroke-linecap:round;stroke-miterlimit:10;stroke-width:23.500000px"/>
            <path d="M 473.648119 139.198566 A 271.000800 271.000800 0 0 0 455.988299 134.845811" data-color="1" style="fill:none;stroke:#bbaadd;stroke-linecap:round;stroke-miterlimit:10;stroke-width:23.500000px"/>
            <path d="M 656.472273 312.459113 A 271.000800 271.000800 0 0 0 517.816932 155.949587" data-color="0" style="fill:none;stroke:#6644ab;stroke-linecap:round;stroke-miterlimit:10;stroke-width:23.500000px"/>
            <path d="M 669.969560 376.380724 A 271.000800 271.000800 0 0 0 667.777198 358.324998" data-color="0" style="fill:none;stroke:#6644ab;stroke-linecap:round;stroke-miterlimit:10;stroke-width:23.500000px"/>
        </g>
        <g name="ring-4" transform="rotate(-63 400 400)">
            <path d="M 714.639335 445.417541 A 317.900400 317.900400 0 0 0 717.046671 423.282452" data-color="1" style="fill:none;stroke:#bbaadd;stroke-linecap:round;stroke-miterlimit:10;stroke-width:23.500000px"/>
            <path d="M 666.488596 573.333472 A 317.900400 317.900400 0 0 0 704.629257 490.893784" data-color="0" style="fill:none;stroke:#6644ab;stroke-linecap:round;stroke-miterlimit:10;stroke-width:23.500000px"/>
            <path d="M 622.996668 626.568202 A 317.900400 317.900400 0 0 0 638.308717 610.403469" data-color="1" style="fill:none;stroke:#bbaadd;stroke-linecap:round;stroke-miterlimit:10;stroke-width:23.500000px"/>
            <path d="M 440.412867 715.321208 A 317.900400 317.900400 0 0 0 587.506665 656.713683" data-color="0" style="fill:none;stroke:#6644ab;stroke-linecap:round;stroke-miterlimit:10;stroke-width:23.500000px"/>
            <path d="M 371.683298 716.636746 A 317.900400 317.900400 0 0 0 393.916254 717.842182" data-color="0" style="fill:none;stroke:#6644ab;stroke-linecap:round;stroke-miterlimit:10;stroke-width:23.500000px"/>
            <path d="M 304.277786 703.146701 A 317.900400 317.900400 0 0 0 325.731815 709.103382" data-color="0" style="fill:none;stroke:#6644ab;stroke-linecap:round;stroke-miterlimit:10;stroke-width:23.500000px"/>
            <path d="M 185.836876 634.935780 A 317.900400 317.900400 0 0 0 261.020074 685.911253" data-color="1" style="fill:none;stroke:#bbaadd;stroke-linecap:round;stroke-miterlimit:10;stroke-width:23.500000px"/>
            <path d="M 140.339643 583.404370 A 317.900400 317.900400 0 0 0 153.814216 601.129869" data-color="1" style="fill:none;stroke:#bbaadd;stroke-linecap:round;stroke-miterlimit:10;stroke-width:23.500000px"/>
            <path d="M 106.983839 523.297177 A 317.900400 317.900400 0 0 0 116.332927 543.504898" data-color="1" style="fill:none;stroke:#bbaadd;stroke-linecap:round;stroke-miterlimit:10;stroke-width:23.500000px"/>
            <path d="M 87.329146 457.424744 A 317.900400 317.900400 0 0 0 92.115594 479.169798" data-color="0" style="fill:none;stroke:#6644ab;stroke-linecap:round;stroke-miterlimit:10;stroke-width:23.500000px"/>
            <path d="M 92.115594 320.830202 A 317.900400 317.900400 0 0 0 82.294594 411.132805" data-color="0" style="fill:none;stroke:#6644ab;stroke-linecap:round;stroke-miterlimit:10;stroke-width:23.500000px"/>
            <path d="M 202.806879 150.649769 A 317.900400 317.900400 0 0 0 106.983839 276.702823" data-color="1" style="fill:none;stroke:#bbaadd;stroke-linecap:round;stroke-miterlimit:10;stroke-width:23.500000px"/>
            <path d="M 325.731815 90.896618 A 317.900400 317.900400 0 0 0 241.348138 124.518147" data-color="0" style="fill:none;stroke:#6644ab;stroke-linecap:round;stroke-miterlimit:10;stroke-width:23.500000px"/>
            <path d="M 393.916254 82.157818 A 317.900400 317.900400 0 0 0 371.683298 83.363254" data-color="1" style="fill:none;stroke:#bbaadd;stroke-linecap:round;stroke-miterlimit:10;stroke-width:23.500000px"/>
            <path d="M 527.937010 108.979750 A 317.900400 317.900400 0 0 0 440.412867 84.678792" data-color="1" style="fill:none;stroke:#bbaadd;stroke-linecap:round;stroke-miterlimit:10;stroke-width:23.500000px"/>
            <path d="M 587.506665 143.286317 A 317.900400 317.900400 0 0 0 569.077664 130.791144" data-color="0" style="fill:none;stroke:#6644ab;stroke-linecap:round;stroke-miterlimit:10;stroke-width:23.500000px"/>
            <path d="M 677.967718 245.744977 A 317.900400 317.900400 0 0 0 622.996668 173.431798" data-color="0" style="fill:none;stroke:#6644ab;stroke-linecap:round;stroke-miterlimit:10;stroke-width:23.500000px"/>
            <path d="M 717.046671 376.717548 A 317.900400 317.900400 0 0 0 697.519814 288.006139" data-color="1" style="fill:none;stroke:#bbaadd;stroke-linecap:round;stroke-miterlimit:10;stroke-width:23.500000px"/>
        </g>
        <g name="ring-5" transform="rotate(-70 400 400)">
            <path d="M 718.357224 578.122762 A 364.800000 364.800000 0 0 0 753.324738 490.778133" data-color="0" style="fill:none;stroke:#6644ab;stroke-linecap:round;stroke-miterlimit:10;stroke-width:23.500000px"/>
            <path d="M 678.894140 635.153352 A 364.800000 364.800000 0 0 0 694.276533 615.593047" data-color="1" style="fill:none;stroke:#bbaadd;stroke-linecap:round;stroke-miterlimit:10;stroke-width:23.500000px"/>
            <path d="M 571.518704 721.963312 A 364.800000 364.800000 0 0 0 648.157320 667.389200" data-color="1" style="fill:none;stroke:#bbaadd;stroke-linecap:round;stroke-miterlimit:10;stroke-width:23.500000px"/>
            <path d="M 507.487180 748.605144 A 364.800000 364.800000 0 0 0 531.002772 740.466318" data-color="1" style="fill:none;stroke:#bbaadd;stroke-linecap:round;stroke-miterlimit:10;stroke-width:23.500000px"/>
            <path d="M 439.570789 762.647477 A 364.800000 364.800000 0 0 0 464.201707 759.106086" data-color="0" style="fill:none;stroke:#6644ab;stroke-linecap:round;stroke-miterlimit:10;stroke-width:23.500000px"/>
            <path d="M 370.224207 763.582786 A 364.800000 364.800000 0 0 0 395.080225 764.766824" data-color="1" style="fill:none;stroke:#bbaadd;stroke-linecap:round;stroke-miterlimit:10;stroke-width:23.500000px"/>
            <path d="M 301.953800 751.377265 A 364.800000 364.800000 0 0 0 326.136556 757.243939" data-color="0" style="fill:none;stroke:#6644ab;stroke-linecap:round;stroke-miterlimit:10;stroke-width:23.500000px"/>
            <path d="M 237.227038 726.472055 A 364.800000 364.800000 0 0 0 259.862505 736.809327" data-color="1" style="fill:none;stroke:#bbaadd;stroke-linecap:round;stroke-miterlimit:10;stroke-width:23.500000px"/>
            <path d="M 178.383315 689.767294 A 364.800000 364.800000 0 0 0 198.653388 704.201548" data-color="1" style="fill:none;stroke:#bbaadd;stroke-linecap:round;stroke-miterlimit:10;stroke-width:23.500000px"/>
            <path d="M 39.646133 456.781431 A 364.800000 364.800000 0 0 0 144.721462 660.599133" data-color="0" style="fill:none;stroke:#6644ab;stroke-linecap:round;stroke-miterlimit:10;stroke-width:23.500000px"/>
            <path d="M 66.152678 252.945570 A 364.800000 364.800000 0 0 0 35.412241 412.442101" data-color="0" style="fill:none;stroke:#6644ab;stroke-linecap:round;stroke-miterlimit:10;stroke-width:23.500000px"/>
            <path d="M 144.721462 139.400867 A 364.800000 364.800000 0 0 0 86.562552 213.355938" data-color="0" style="fill:none;stroke:#6644ab;stroke-linecap:round;stroke-miterlimit:10;stroke-width:23.500000px"/>
            <path d="M 198.653388 95.798452 A 364.800000 364.800000 0 0 0 178.383315 110.232706" data-color="1" style="fill:none;stroke:#bbaadd;stroke-linecap:round;stroke-miterlimit:10;stroke-width:23.500000px"/>
            <path d="M 259.862505 63.190673 A 364.800000 364.800000 0 0 0 237.227038 73.527945" data-color="0" style="fill:none;stroke:#6644ab;stroke-linecap:round;stroke-miterlimit:10;stroke-width:23.500000px"/>
            <path d="M 395.080225 35.233176 A 364.800000 364.800000 0 0 0 301.953800 48.622735" data-color="0" style="fill:none;stroke:#6644ab;stroke-linecap:round;stroke-miterlimit:10;stroke-width:23.500000px"/>
            <path d="M 531.002772 59.533682 A 364.800000 364.800000 0 0 0 439.570789 37.352523" data-color="0" style="fill:none;stroke:#6644ab;stroke-linecap:round;stroke-miterlimit:10;stroke-width:23.500000px"/>
            <path d="M 648.157320 132.610800 A 364.800000 364.800000 0 0 0 571.518704 78.036688" data-color="0" style="fill:none;stroke:#6644ab;stroke-linecap:round;stroke-miterlimit:10;stroke-width:23.500000px"/>
            <path d="M 694.276533 184.406953 A 364.800000 364.800000 0 0 0 678.894140 164.846648" data-color="1" style="fill:none;stroke:#bbaadd;stroke-linecap:round;stroke-miterlimit:10;stroke-width:23.500000px"/>
            <path d="M 729.759825 243.995200 A 364.800000 364.800000 0 0 0 718.357224 221.877238" data-color="1" style="fill:none;stroke:#bbaadd;stroke-linecap:round;stroke-miterlimit:10;stroke-width:23.500000px"/>
            <path d="M 753.324738 309.221867 A 364.800000 364.800000 0 0 0 746.314048 285.345650" data-color="0" style="fill:none;stroke:#6644ab;stroke-linecap:round;stroke-miterlimit:10;stroke-width:23.500000px"/>
            <path d="M 761.754181 447.042032 A 364.800000 364.800000 0 0 0 761.754181 352.957968" data-color="1" style="fill:none;stroke:#bbaadd;stroke-linecap:round;stroke-miterlimit:10;stroke-width:23.500000px"/>
        </g>
    </g>
    <g id="Logo" data-logo-type="phone" transform="translate(293.238400 293.238400) scale(1.980000 1.980000)">
        &#32;                   
        <path id="outer_circle" d="M53.92,0a53.92,53.92,0,1,0,53.92,53.92A53.92,53.92,0,0,0,53.92,0Zm30,91.32c-1,.78-2,1.51-3,2.21h0a47.94,47.94,0,0,1-53.92,0h0c-1-.7-2-1.44-3-2.21V36.8C24,28.47,28.47,24,36.91,24H71c8.38,0,12.9,4.51,12.9,12.84Z" style="fill:#6644ab"/>
        <path id="phone_screen" d="M77.89,95.42V36.8c0-5.06-1.81-6.85-6.9-6.85H68.92v.13A2.69,2.69,0,0,1,66.11,33H41.8A2.69,2.69,0,0,1,39,30.08V30H36.92c-5.14,0-7,1.79-7,6.85V95.42h0a48,48,0,0,0,47.94,0h0Z" style="fill:#bbaadd;isolation:isolate"/>
    </g>
</svg>
